<svg width="28" height="18" viewBox="0 0 28 18" fill="none" xmlns="http://www.w3.org/2000/svg">
<path d="M12.6231 5.764C12.6231 5.992 12.5218 6.258 12.3191 6.562C12.1164 6.866 11.8758 7.246 11.5971 7.702C11.3438 8.158 11.0651 8.728 10.7611 9.412C10.4571 10.0707 10.2038 10.894 10.0011 11.882C9.87443 12.49 9.78576 13.174 9.73509 13.934C9.70976 14.694 9.57043 15.3653 9.31709 15.948C9.19043 16.2267 9.01309 16.4927 8.78509 16.746C8.58243 16.9993 8.32909 17.126 8.02509 17.126C7.82243 17.126 7.68309 16.974 7.60709 16.67C7.55643 16.366 7.53109 16.1127 7.53109 15.91C7.53109 15.5807 7.60709 15.0107 7.75909 14.2C7.91109 13.364 8.10109 12.4773 8.32909 11.54C8.55709 10.5773 8.81043 9.65267 9.08909 8.766C9.36776 7.854 9.63376 7.17 9.88709 6.714C9.83643 6.66333 9.77309 6.62533 9.69709 6.6C9.62109 6.54933 9.45643 6.524 9.20309 6.524C9.20309 6.524 8.98776 6.54933 8.55709 6.6C8.15176 6.62533 7.67043 6.66333 7.11309 6.714C6.58109 6.73933 6.03643 6.77733 5.47909 6.828C4.92176 6.85333 4.49109 6.866 4.18709 6.866C3.70576 6.866 3.26243 6.85333 2.85709 6.828C2.45176 6.80267 2.09709 6.73933 1.79309 6.638C1.48909 6.53667 1.24843 6.38467 1.07109 6.182C0.89376 5.97933 0.805094 5.70067 0.805094 5.346C0.805094 5.14333 0.868427 5.004 0.995094 4.928C1.14709 4.852 1.28643 4.814 1.41309 4.814C1.38776 4.814 1.67909 4.87733 2.28709 5.004C2.92043 5.10533 3.64243 5.156 4.45309 5.156C5.87176 5.156 7.17643 5.08 8.36709 4.928C9.58309 4.75067 10.4444 4.56067 10.9511 4.358C11.1031 4.30733 11.1918 4.282 11.2171 4.282C11.2931 4.282 11.3944 4.33267 11.5211 4.434C11.7998 4.586 12.0531 4.76333 12.2811 4.966C12.5091 5.14333 12.6231 5.40933 12.6231 5.764ZM27.3917 1.128C27.3917 1.25467 27.2397 1.47 26.9357 1.774C26.6317 2.05267 26.2897 2.35667 25.9097 2.686C25.5297 3.01533 25.1624 3.332 24.8077 3.636C24.4784 3.91467 24.2757 4.10467 24.1997 4.206C24.3517 4.23133 24.5417 4.25667 24.7697 4.282C24.9977 4.282 25.2131 4.30733 25.4157 4.358C25.6437 4.38333 25.8211 4.44667 25.9477 4.548C26.0997 4.624 26.1757 4.75067 26.1757 4.928C26.1757 5.05467 26.0491 5.16867 25.7957 5.27C25.5677 5.346 25.4157 5.384 25.3397 5.384C24.9851 5.384 24.6811 5.39667 24.4277 5.422C24.1744 5.422 23.9337 5.44733 23.7057 5.498C23.4777 5.52333 23.2497 5.574 23.0217 5.65C22.7937 5.70067 22.5404 5.764 22.2617 5.84V6.182C22.2617 6.41 22.4011 6.65067 22.6797 6.904C22.9837 7.132 23.3131 7.37267 23.6677 7.626C24.0477 7.854 24.3771 8.09467 24.6557 8.348C24.9597 8.576 25.1117 8.804 25.1117 9.032C25.1117 9.108 25.0737 9.19667 24.9977 9.298C24.9217 9.39933 24.8331 9.45 24.7317 9.45C24.5544 9.45 24.2757 9.36133 23.8957 9.184C23.5157 9.00667 23.1231 8.79133 22.7177 8.538C22.3124 8.28467 21.9324 8.03133 21.5777 7.778C21.2484 7.52467 21.0331 7.322 20.9317 7.17C20.4504 7.44867 20.0451 7.86667 19.7157 8.424C19.4117 8.956 19.0824 9.46267 18.7277 9.944C18.4237 9.944 18.1704 9.89333 17.9677 9.792C17.7904 9.69067 17.7017 9.50067 17.7017 9.222C17.7017 8.71533 17.9171 8.20867 18.3477 7.702C18.7784 7.19533 19.1711 6.714 19.5257 6.258C19.2724 6.258 18.9431 6.23267 18.5377 6.182C18.1324 6.13133 17.8284 6.09333 17.6257 6.068C17.3471 6.04267 17.0304 5.90333 16.6757 5.65C16.3464 5.39667 16.1817 5.118 16.1817 4.814C16.1817 4.68733 16.2577 4.586 16.4097 4.51C16.5871 4.434 16.7644 4.396 16.9417 4.396C17.1444 4.396 17.4231 4.44667 17.7777 4.548C18.1577 4.64933 18.6391 4.7 19.2217 4.7C19.3991 4.7 19.5131 4.662 19.5637 4.586C19.4624 4.40867 19.3484 4.13 19.2217 3.75C19.1204 3.34467 19.0697 2.876 19.0697 2.344C19.0697 2.04 19.1837 1.83733 19.4117 1.736C19.6651 1.60933 19.8424 1.546 19.9437 1.546C20.1717 1.546 20.3491 1.67267 20.4757 1.926C20.6277 2.154 20.7544 2.43267 20.8557 2.762C20.9571 3.066 21.0584 3.38267 21.1597 3.712C21.2864 4.016 21.4257 4.244 21.5777 4.396C21.6284 4.34533 21.8817 4.11733 22.3377 3.712C22.7937 3.28133 23.3004 2.82533 23.8577 2.344C24.4404 1.86267 24.9851 1.432 25.4917 1.052C25.9984 0.646666 26.3151 0.444 26.4417 0.444C26.6191 0.444 26.8217 0.545333 27.0497 0.747999C27.2777 0.925332 27.3917 1.052 27.3917 1.128Z" fill="#CA2400"/>
</svg>
